<svg width="50" height="40" viewBox="0 0 50 40" fill="none" xmlns="http://www.w3.org/2000/svg">
<path fill-rule="evenodd" clip-rule="evenodd" d="M35.7634 19.5725C35.6354 19.3996 35.6409 19.1207 35.7752 18.953L42.3516 10.7466C42.4859 10.5789 42.4213 10.4414 42.2078 10.4414H37.8142C37.6007 10.4414 37.321 10.5828 37.193 10.7553L33.6566 15.5221C33.5286 15.695 33.4238 16.0129 33.4238 16.2288V23.1612C33.4238 23.3772 33.5263 23.6971 33.6511 23.872L37.4821 29.2295C37.6074 29.4044 37.8843 29.5478 38.0979 29.5478H42.7534C42.9669 29.5478 43.037 29.4064 42.909 29.2335L35.763 19.5721L35.7634 19.5725Z" fill="white"/>
<path fill-rule="evenodd" clip-rule="evenodd" d="M8.66732 10.4535C8.45381 10.4535 8.2793 10.63 8.2793 10.8459V29.1671C8.2793 29.3831 8.45381 29.5595 8.66732 29.5595H11.6695C11.883 29.5595 12.1635 29.4189 12.2927 29.2472L12.3652 29.1504C12.4944 28.9787 12.6004 28.6612 12.6004 28.4452V10.8455C12.6004 10.6296 12.4258 10.4531 12.2123 10.4531H8.66732V10.4535Z" fill="white"/>
<path fill-rule="evenodd" clip-rule="evenodd" d="M21.3417 10.4535C21.1282 10.4535 20.8521 10.5973 20.7284 10.7734L14.9714 18.95C14.8477 19.1261 14.7461 19.4464 14.7461 19.6623V25.294C14.7461 25.5099 14.8481 25.543 14.9726 25.3677L20.195 18.0245C20.3195 17.8492 20.4215 17.8823 20.4215 18.0982V29.1667C20.4215 29.3827 20.596 29.5591 20.8095 29.5591H24.3514C24.5649 29.5591 24.7394 29.3827 24.7394 29.1667V10.8455C24.7394 10.6296 24.5649 10.4531 24.3514 10.4531H21.3409L21.3417 10.4535Z" fill="white"/>
<path d="M30.8466 10.4648H27.3197C27.1054 10.4648 26.9316 10.6405 26.9316 10.8573V29.1789C26.9316 29.3956 27.1054 29.5713 27.3197 29.5713H30.8466C31.0609 29.5713 31.2346 29.3956 31.2346 29.1789V10.8573C31.2346 10.6405 31.0609 10.4648 30.8466 10.4648Z" fill="white"/>
<path d="M48.1655 38.3407C48.2714 38.3407 48.3581 38.253 48.3581 38.1459V32.6206C48.3581 32.5134 48.2714 32.4258 48.1655 32.4258H45.9468C45.8409 32.4258 45.7542 32.5134 45.7542 32.6206V35.048C45.7542 35.4121 45.4623 35.7073 45.1022 35.7073H42.7024C42.5964 35.7073 42.5098 35.795 42.5098 35.9021V38.1455C42.5098 38.2526 42.5964 38.3403 42.7024 38.3403H48.1659L48.1655 38.3407Z" fill="#19B2AB"/>
<path d="M43.2856 38.8047H48.1648C48.5249 38.8047 48.8168 38.5095 48.8168 38.1454V33.2109H49.5786C49.8111 33.2109 50.0009 33.4034 50.0009 33.638V39.5756C50.0009 39.8107 49.8107 40.0027 49.5786 40.0027H43.7075C43.475 40.0027 43.2852 39.8103 43.2852 39.5756V38.8051L43.2856 38.8047Z" fill="#E14C4D"/>
<path d="M7.30024 38.3403C7.40621 38.3403 7.49287 38.2526 7.49287 38.1455V35.9021C7.49287 35.795 7.40621 35.7073 7.30024 35.7073H4.90039C4.54034 35.7073 4.24843 35.4121 4.24843 35.048V32.6206C4.24843 32.5134 4.16177 32.4258 4.0558 32.4258H1.83716C1.7312 32.4258 1.64453 32.5134 1.64453 32.6206V38.1459C1.64453 38.253 1.7312 38.3407 1.83716 38.3407H7.30063L7.30024 38.3403Z" fill="#19B2AB"/>
<path d="M6.71578 39.5639C6.71578 39.799 6.52551 39.991 6.29349 39.991H0.422297C0.19027 39.9914 0 39.799 0 39.5639V33.6263C0 33.3912 0.19027 33.1992 0.422297 33.1992H1.18417V38.1337C1.18417 38.4978 1.47607 38.793 1.83613 38.793H6.71539V39.5635L6.71578 39.5639Z" fill="#E14C4D"/>
<path d="M42.7004 1.66406C42.5945 1.66406 42.5078 1.75171 42.5078 1.85888V4.10221C42.5078 4.20938 42.5945 4.29703 42.7004 4.29703H45.1003C45.4603 4.29703 45.7523 4.59224 45.7523 4.95636V7.38376C45.7523 7.49093 45.8389 7.57857 45.9449 7.57857H48.1635C48.2695 7.57857 48.3562 7.49093 48.3562 7.38376V1.85927C48.3562 1.75211 48.2695 1.66446 48.1635 1.66446H42.7001L42.7004 1.66406Z" fill="#19B2AB"/>
<path d="M43.2852 0.427075C43.2852 0.192024 43.4754 0 43.7075 0H49.5786C49.8111 0 50.0009 0.192423 50.0009 0.427075V6.36469C50.0009 6.59974 49.8107 6.79176 49.5786 6.79176H48.8168V1.8573C48.8168 1.49317 48.5249 1.19796 48.1648 1.19796H43.2856V0.427473L43.2852 0.427075Z" fill="#E14C4D"/>
<path d="M1.83716 1.66406C1.7312 1.66406 1.64453 1.75171 1.64453 1.85888V7.38416C1.64453 7.49132 1.7312 7.57897 1.83716 7.57897H4.0558C4.16177 7.57897 4.24843 7.49132 4.24843 7.38416V4.95676C4.24843 4.59263 4.54034 4.29743 4.90039 4.29743H7.30024C7.40621 4.29743 7.49287 4.20978 7.49287 4.10261V1.85927C7.49287 1.75211 7.40621 1.66446 7.30024 1.66446H1.83716V1.66406Z" fill="#19B2AB"/>
<path d="M6.71578 1.19796H1.83652C1.47646 1.19796 1.18456 1.49317 1.18456 1.8573V6.79176H0.422297C0.189876 6.79176 0 6.59934 0 6.36469V0.427075C0 0.192423 0.19027 0 0.422297 0H6.29349C6.52591 0 6.71578 0.192423 6.71578 0.427075V1.19756V1.19796Z" fill="#E14C4D"/>
</svg>
