<svg width="183" height="40" viewBox="0 0 183 40" fill="none" xmlns="http://www.w3.org/2000/svg">
<path d="M32.055 8.51977V33.6063C32.055 34.0045 31.9223 34.3363 31.6568 34.6018C31.3913 34.8673 31.0595 35 30.6613 35H24.6883C24.2901 35 23.9583 34.8673 23.6928 34.6018C23.4274 34.3363 23.2946 34.0045 23.2946 33.6063V13.8955H11.7469V33.6063C11.7469 34.0045 11.6141 34.3363 11.3487 34.6018C11.0832 34.8673 10.7514 35 10.3532 35H4.38019C3.98199 35 3.65016 34.8673 3.38469 34.6018C3.11923 34.3363 2.98649 34.0045 2.98649 33.6063V8.51977C2.98649 8.12157 3.11923 7.78974 3.38469 7.52427C3.65016 7.25881 3.98199 7.12607 4.38019 7.12607H30.6613C31.0595 7.12607 31.3913 7.25881 31.6568 7.52427C31.9223 7.78974 32.055 8.12157 32.055 8.51977Z" fill="white"/>
<path d="M42.7628 11.943L44.2184 8.08544C44.3349 7.74578 44.5775 7.57595 44.9463 7.57595H47.057C47.2414 7.57595 47.3724 7.62447 47.45 7.72152C47.5277 7.81856 47.5422 7.93987 47.4937 8.08544L45.0918 14.5632C44.7037 15.6015 44.1651 16.3973 43.4761 16.9505C42.787 17.4939 41.87 17.7656 40.7248 17.7656H38.9053C38.7597 17.7656 38.6384 17.7171 38.5413 17.6201C38.4443 17.523 38.3958 17.4017 38.3958 17.2561V15.6549C38.3958 15.5093 38.4443 15.388 38.5413 15.291C38.6384 15.1939 38.7597 15.1454 38.9053 15.1454H39.5603C39.6574 15.1454 39.8272 15.1697 40.0698 15.2182C40.3124 15.2667 40.4822 15.291 40.5793 15.291H40.7248C40.9966 15.291 41.2295 15.2182 41.4236 15.0726C41.6177 14.9271 41.7487 14.7572 41.8166 14.5632L41.8894 14.3448H41.5255C40.3706 14.3448 39.4584 14.0779 38.7888 13.5442C38.1192 13.0104 37.5515 12.1856 37.0857 11.0696L35.8484 8.08544C35.7901 7.93987 35.7998 7.81856 35.8775 7.72152C35.9648 7.62447 36.1007 7.57595 36.2851 7.57595H38.4686C38.8179 7.57595 39.0605 7.74578 39.1964 8.08544L40.4337 11.0696C40.686 11.6518 41.0742 11.943 41.5982 11.943H42.7628ZM58.367 8.08544V9.5411C58.367 9.68667 58.3184 9.80798 58.2214 9.90502C58.1244 10.0021 58.0031 10.0506 57.8575 10.0506H54.8006V17.2561C54.8006 17.4017 54.7521 17.523 54.655 17.6201C54.558 17.7171 54.4367 17.7656 54.2911 17.7656H52.1076C51.962 17.7656 51.8407 17.7171 51.7437 17.6201C51.6466 17.523 51.5981 17.4017 51.5981 17.2561V10.0506H48.5412C48.3956 10.0506 48.2743 10.0021 48.1773 9.90502C48.0802 9.80798 48.0317 9.68667 48.0317 9.5411V8.08544C48.0317 7.93987 48.0802 7.81856 48.1773 7.72152C48.2743 7.62447 48.3956 7.57595 48.5412 7.57595H57.8575C58.0031 7.57595 58.1244 7.62447 58.2214 7.72152C58.3184 7.81856 58.367 7.93987 58.367 8.08544ZM69.4335 8.08544V9.5411C69.4335 9.68667 69.3849 9.80798 69.2879 9.90502C69.1908 10.0021 69.0695 10.0506 68.924 10.0506H62.7374V11.3607H67.3227C67.4683 11.3607 67.5896 11.4092 67.6867 11.5063C67.7837 11.6033 67.8322 11.7246 67.8322 11.8702V13.3258C67.8322 13.4714 67.7837 13.5927 67.6867 13.6898C67.5896 13.7868 67.4683 13.8353 67.3227 13.8353H62.7374V15.291H68.924C69.0695 15.291 69.1908 15.3395 69.2879 15.4366C69.3849 15.5336 69.4335 15.6549 69.4335 15.8005V17.2561C69.4335 17.4017 69.3849 17.523 69.2879 17.6201C69.1908 17.7171 69.0695 17.7656 68.924 17.7656H60.0444C59.8988 17.7656 59.7775 17.7171 59.6805 17.6201C59.5834 17.523 59.5349 17.4017 59.5349 17.2561V8.08544C59.5349 7.93987 59.5834 7.81856 59.6805 7.72152C59.7775 7.62447 59.8988 7.57595 60.0444 7.57595H68.924C69.0695 7.57595 69.1908 7.62447 69.2879 7.72152C69.3849 7.81856 69.4335 7.93987 69.4335 8.08544ZM80.9338 10.4145C80.9338 10.8415 80.8125 11.2151 80.5699 11.5354C80.3273 11.8459 80.0847 12.0497 79.842 12.1467L79.4781 12.3069V12.4524C79.5364 12.4621 79.614 12.4816 79.711 12.5107C79.8081 12.5398 79.9828 12.6126 80.2351 12.729C80.4874 12.8455 80.7106 12.9862 80.9047 13.1512C81.0988 13.3064 81.2734 13.5296 81.4287 13.8208C81.584 14.1119 81.6616 14.4321 81.6616 14.7815C81.6616 15.6355 81.2832 16.3488 80.5262 16.9213C79.779 17.4842 78.6775 17.7656 77.2218 17.7656H71.3992C71.2536 17.7656 71.1323 17.7171 71.0353 17.6201C70.9382 17.523 70.8897 17.4017 70.8897 17.2561V8.08544C70.8897 7.93987 70.9382 7.81856 71.0353 7.72152C71.1323 7.62447 71.2536 7.57595 71.3992 7.57595H76.6396C78.0564 7.57595 79.1239 7.84282 79.842 8.37657C80.5699 8.91031 80.9338 9.58963 80.9338 10.4145ZM77.2218 13.6898H74.0922V15.4366H77.2218C77.5712 15.4366 77.8381 15.3589 78.0225 15.2036C78.2165 15.0387 78.3136 14.8252 78.3136 14.5632C78.3136 14.3011 78.2165 14.0925 78.0225 13.9372C77.8381 13.7722 77.5712 13.6898 77.2218 13.6898ZM76.6396 9.90502H74.0922V11.3607H76.6396C77.2704 11.3607 77.5858 11.1181 77.5858 10.6329C77.5858 10.1476 77.2704 9.90502 76.6396 9.90502ZM86.7217 14.898C87.1875 15.4026 87.828 15.6549 88.6431 15.6549C89.4583 15.6549 90.0988 15.4026 90.5646 14.898C91.0304 14.3836 91.2633 13.6412 91.2633 12.6708C91.2633 11.7003 91.0304 10.9628 90.5646 10.4582C90.0988 9.94384 89.4583 9.68667 88.6431 9.68667C87.828 9.68667 87.1875 9.94384 86.7217 10.4582C86.2559 10.9628 86.0229 11.7003 86.0229 12.6708C86.0229 13.6412 86.2559 14.3836 86.7217 14.898ZM84.2325 8.74049C85.2709 7.77004 86.7411 7.28482 88.6431 7.28482C90.5452 7.28482 92.0154 7.77004 93.0538 8.74049C94.0922 9.70123 94.6114 11.0113 94.6114 12.6708C94.6114 14.3302 94.0922 15.6452 93.0538 16.6156C92.0154 17.5764 90.5452 18.0568 88.6431 18.0568C86.7411 18.0568 85.2709 17.5764 84.2325 16.6156C83.1941 15.6452 82.6749 14.3302 82.6749 12.6708C82.6749 11.0113 83.1941 9.70123 84.2325 8.74049ZM106.775 15.291H107.721C107.867 15.291 107.988 15.3395 108.085 15.4366C108.182 15.5336 108.231 15.6549 108.231 15.8005V17.2561C108.231 17.4017 108.182 17.523 108.085 17.6201C107.988 17.7171 107.867 17.7656 107.721 17.7656H95.3483C95.2027 17.7656 95.0814 17.7171 94.9844 17.6201C94.8874 17.523 94.8388 17.4017 94.8388 17.2561V15.8005C94.8388 15.6549 94.8874 15.5336 94.9844 15.4366C95.0814 15.3395 95.2027 15.291 95.3483 15.291H96.1489L97.0951 11.3607C97.7065 8.83753 99.3563 7.57595 102.044 7.57595H106.266C106.411 7.57595 106.533 7.62447 106.63 7.72152C106.727 7.81856 106.775 7.93987 106.775 8.08544V15.291ZM103.573 15.291V10.0506H102.044C101.132 10.0506 100.574 10.4873 100.37 11.3607L99.4242 15.291H103.573ZM116.959 11.943H116.813L113.174 17.2561C112.951 17.5958 112.684 17.7656 112.373 17.7656H109.899C109.753 17.7656 109.632 17.7171 109.535 17.6201C109.438 17.523 109.389 17.4017 109.389 17.2561V8.08544C109.389 7.93987 109.438 7.81856 109.535 7.72152C109.632 7.62447 109.753 7.57595 109.899 7.57595H112.082C112.228 7.57595 112.349 7.62447 112.446 7.72152C112.543 7.81856 112.592 7.93987 112.592 8.08544V13.3986H112.737L116.376 8.08544C116.6 7.74578 116.867 7.57595 117.177 7.57595H119.652C119.797 7.57595 119.919 7.62447 120.016 7.72152C120.113 7.81856 120.161 7.93987 120.161 8.08544V17.2561C120.161 17.4017 120.113 17.523 120.016 17.6201C119.919 17.7171 119.797 17.7656 119.652 17.7656H117.468C117.323 17.7656 117.201 17.7171 117.104 17.6201C117.007 17.523 116.959 17.4017 116.959 17.2561V11.943ZM131.656 8.08544V9.5411C131.656 9.68667 131.607 9.80798 131.51 9.90502C131.413 10.0021 131.292 10.0506 131.146 10.0506H128.089V17.2561C128.089 17.4017 128.041 17.523 127.944 17.6201C127.847 17.7171 127.726 17.7656 127.58 17.7656H125.396C125.251 17.7656 125.13 17.7171 125.033 17.6201C124.936 17.523 124.887 17.4017 124.887 17.2561V10.0506H121.83C121.685 10.0506 121.563 10.0021 121.466 9.90502C121.369 9.80798 121.321 9.68667 121.321 9.5411V8.08544C121.321 7.93987 121.369 7.81856 121.466 7.72152C121.563 7.62447 121.685 7.57595 121.83 7.57595H131.146C131.292 7.57595 131.413 7.62447 131.51 7.72152C131.607 7.81856 131.656 7.93987 131.656 8.08544ZM142.722 8.08544V9.5411C142.722 9.68667 142.674 9.80798 142.577 9.90502C142.48 10.0021 142.358 10.0506 142.213 10.0506H136.026V11.3607H140.612C140.757 11.3607 140.878 11.4092 140.976 11.5063C141.073 11.6033 141.121 11.7246 141.121 11.8702V13.3258C141.121 13.4714 141.073 13.5927 140.976 13.6898C140.878 13.7868 140.757 13.8353 140.612 13.8353H136.026V15.291H142.213C142.358 15.291 142.48 15.3395 142.577 15.4366C142.674 15.5336 142.722 15.6549 142.722 15.8005V17.2561C142.722 17.4017 142.674 17.523 142.577 17.6201C142.48 17.7171 142.358 17.7656 142.213 17.7656H133.333C133.188 17.7656 133.066 17.7171 132.969 17.6201C132.872 17.523 132.824 17.4017 132.824 17.2561V8.08544C132.824 7.93987 132.872 7.81856 132.969 7.72152C133.066 7.62447 133.188 7.57595 133.333 7.57595H142.213C142.358 7.57595 142.48 7.62447 142.577 7.72152C142.674 7.81856 142.722 7.93987 142.722 8.08544ZM154.747 8.08544V17.2561C154.747 17.4017 154.698 17.523 154.601 17.6201C154.504 17.7171 154.383 17.7656 154.237 17.7656H152.054C151.908 17.7656 151.787 17.7171 151.69 17.6201C151.593 17.523 151.544 17.4017 151.544 17.2561V10.0506H149.797C148.905 10.0506 148.347 10.4873 148.123 11.3607L146.668 17.2561C146.58 17.5958 146.391 17.7656 146.1 17.7656H143.902C143.718 17.7656 143.577 17.7171 143.48 17.6201C143.383 17.5133 143.354 17.392 143.393 17.2561L144.848 11.3607C145.479 8.83753 147.129 7.57595 149.797 7.57595H154.237C154.383 7.57595 154.504 7.62447 154.601 7.72152C154.698 7.81856 154.747 7.93987 154.747 8.08544ZM166.028 11.6227C166.853 12.2729 167.265 13.1317 167.265 14.1992C167.265 15.2667 166.853 16.1304 166.028 16.7903C165.213 17.4405 164 17.7656 162.389 17.7656H157.294C157.148 17.7656 157.027 17.7171 156.93 17.6201C156.833 17.523 156.784 17.4017 156.784 17.2561V8.08544C156.784 7.93987 156.833 7.81856 156.93 7.72152C157.027 7.62447 157.148 7.57595 157.294 7.57595H159.477C159.623 7.57595 159.744 7.62447 159.841 7.72152C159.938 7.81856 159.987 7.93987 159.987 8.08544V10.6329H162.389C164 10.6329 165.213 10.9628 166.028 11.6227ZM163.524 15.1018C163.786 14.8786 163.917 14.5777 163.917 14.1992C163.917 13.8208 163.786 13.5199 163.524 13.2967C163.262 13.0735 162.884 12.9619 162.389 12.9619H159.987V15.4366H162.389C162.884 15.4366 163.262 15.325 163.524 15.1018Z" fill="white"/>
<path d="M46.3184 24.8042V26.2599C46.3184 26.4054 46.2699 26.5267 46.1728 26.6238C46.0758 26.7208 45.9545 26.7693 45.8089 26.7693H39.6223V28.0794H44.2077C44.3533 28.0794 44.4746 28.128 44.5716 28.225C44.6687 28.322 44.7172 28.4434 44.7172 28.5889V30.0446C44.7172 30.1902 44.6687 30.3115 44.5716 30.4085C44.4746 30.5056 44.3533 30.5541 44.2077 30.5541H39.6223V32.0097H45.8089C45.9545 32.0097 46.0758 32.0583 46.1728 32.1553C46.2699 32.2524 46.3184 32.3737 46.3184 32.5192V33.9749C46.3184 34.1205 46.2699 34.2418 46.1728 34.3388C46.0758 34.4359 45.9545 34.4844 45.8089 34.4844H36.9294C36.7838 34.4844 36.6625 34.4359 36.5654 34.3388C36.4684 34.2418 36.4199 34.1205 36.4199 33.9749V24.8042C36.4199 24.6586 36.4684 24.5373 36.5654 24.4403C36.6625 24.3432 36.7838 24.2947 36.9294 24.2947H45.8089C45.9545 24.2947 46.0758 24.3432 46.1728 24.4403C46.2699 24.5373 46.3184 24.6586 46.3184 24.8042ZM57.12 25.3282C57.974 26.0075 58.401 26.9003 58.401 28.0067C58.401 29.113 57.974 30.0106 57.12 30.6996C56.266 31.379 55.019 31.7186 53.379 31.7186H50.9771V33.9749C50.9771 34.1205 50.9286 34.2418 50.8316 34.3388C50.7345 34.4359 50.6132 34.4844 50.4676 34.4844H48.2841C48.1386 34.4844 48.0173 34.4359 47.9202 34.3388C47.8232 34.2418 47.7747 34.1205 47.7747 33.9749V24.8042C47.7747 24.6586 47.8232 24.5373 47.9202 24.4403C48.0173 24.3432 48.1386 24.2947 48.2841 24.2947H53.379C55.019 24.2947 56.266 24.6392 57.12 25.3282ZM50.9771 29.3895H53.379C53.9127 29.3895 54.3252 29.2634 54.6163 29.0111C54.9074 28.7587 55.053 28.4239 55.053 28.0067C55.053 27.5894 54.9074 27.2546 54.6163 27.0022C54.3252 26.7499 53.9127 26.6238 53.379 26.6238H50.9771V29.3895ZM69.7564 27.1333C69.7564 27.5602 69.6351 27.9339 69.3925 28.2541C69.1498 28.5647 68.9072 28.7685 68.6646 28.8655L68.3007 29.0256V29.1712C68.3589 29.1809 68.4366 29.2003 68.5336 29.2294C68.6307 29.2585 68.8053 29.3313 69.0576 29.4478C69.31 29.5642 69.5332 29.7049 69.7273 29.8699C69.9213 30.0252 70.096 30.2484 70.2513 30.5395C70.4066 30.8306 70.4842 31.1509 70.4842 31.5003C70.4842 32.3542 70.1057 33.0675 69.3488 33.6401C68.6015 34.2029 67.5001 34.4844 66.0444 34.4844H60.2217C60.0762 34.4844 59.9549 34.4359 59.8578 34.3388C59.7608 34.2418 59.7123 34.1205 59.7123 33.9749V24.8042C59.7123 24.6586 59.7608 24.5373 59.8578 24.4403C59.9549 24.3432 60.0762 24.2947 60.2217 24.2947H65.4622C66.879 24.2947 67.9465 24.5616 68.6646 25.0953C69.3925 25.6291 69.7564 26.3084 69.7564 27.1333ZM66.0444 30.4085H62.9147V32.1553H66.0444C66.3938 32.1553 66.6606 32.0777 66.845 31.9224C67.0391 31.7574 67.1362 31.5439 67.1362 31.2819C67.1362 31.0199 67.0391 30.8112 66.845 30.656C66.6606 30.491 66.3938 30.4085 66.0444 30.4085ZM65.4622 26.6238H62.9147V28.0794H65.4622C66.0929 28.0794 66.4083 27.8368 66.4083 27.3516C66.4083 26.8664 66.0929 26.6238 65.4622 26.6238ZM75.5442 31.6167C76.0101 32.1213 76.6505 32.3737 77.4657 32.3737C78.2809 32.3737 78.9214 32.1213 79.3872 31.6167C79.853 31.1024 80.0859 30.36 80.0859 29.3895C80.0859 28.4191 79.853 27.6816 79.3872 27.1769C78.9214 26.6626 78.2809 26.4054 77.4657 26.4054C76.6505 26.4054 76.0101 26.6626 75.5442 27.1769C75.0784 27.6816 74.8455 28.4191 74.8455 29.3895C74.8455 30.36 75.0784 31.1024 75.5442 31.6167ZM73.055 25.4592C74.0934 24.4888 75.5636 24.0036 77.4657 24.0036C79.3678 24.0036 80.838 24.4888 81.8764 25.4592C82.9148 26.42 83.434 27.7301 83.434 29.3895C83.434 31.049 82.9148 32.364 81.8764 33.3344C80.838 34.2951 79.3678 34.7755 77.4657 34.7755C75.5636 34.7755 74.0934 34.2951 73.055 33.3344C72.0167 32.364 71.4975 31.049 71.4975 29.3895C71.4975 27.7301 72.0167 26.42 73.055 25.4592ZM92.4614 29.0984V29.244C92.4905 29.2537 92.5293 29.2682 92.5778 29.2876C92.6263 29.3071 92.7234 29.3653 92.869 29.4623C93.0242 29.5594 93.1746 29.6758 93.3202 29.8117C93.4755 29.9475 93.655 30.1465 93.8588 30.4085C94.0626 30.6608 94.2518 30.952 94.4265 31.2819L95.8822 33.9749C95.9404 34.0913 95.9356 34.2078 95.8676 34.3243C95.8094 34.431 95.693 34.4844 95.5183 34.4844H93.262C92.8156 34.4844 92.5002 34.3145 92.3158 33.9749L90.8601 31.2819C90.7243 31.0393 90.5642 30.8598 90.3798 30.7433C90.1954 30.6172 89.9188 30.5541 89.55 30.5541H88.2399V33.9749C88.2399 34.1205 88.1914 34.2418 88.0944 34.3388C87.9973 34.4359 87.876 34.4844 87.7305 34.4844H85.547C85.4014 34.4844 85.2801 34.4359 85.183 34.3388C85.086 34.2418 85.0375 34.1205 85.0375 33.9749V24.8042C85.0375 24.6586 85.086 24.5373 85.183 24.4403C85.2801 24.3432 85.4014 24.2947 85.547 24.2947H87.7305C87.876 24.2947 87.9973 24.3432 88.0944 24.4403C88.1914 24.5373 88.2399 24.6586 88.2399 24.8042V28.0794H89.3317C89.7005 28.0794 89.977 28.0212 90.1614 27.9048C90.3458 27.7786 90.5059 27.5942 90.6418 27.3516L92.0247 24.8042C92.2091 24.4645 92.5245 24.2947 92.9709 24.2947H95.2271C95.4018 24.2947 95.5183 24.3529 95.5765 24.4694C95.6444 24.5761 95.6493 24.6877 95.5911 24.8042L94.2082 27.3516C93.9753 27.7786 93.7132 28.1377 93.4221 28.4288C93.131 28.7199 92.8981 28.9043 92.7234 28.982L92.4614 29.0984ZM102.955 28.6617L104.411 24.8042C104.527 24.4645 104.77 24.2947 105.139 24.2947H107.249C107.434 24.2947 107.565 24.3432 107.642 24.4403C107.72 24.5373 107.735 24.6586 107.686 24.8042L105.284 31.2819C104.896 32.3203 104.357 33.116 103.668 33.6692C102.979 34.2127 102.062 34.4844 100.917 34.4844H99.0976C98.9521 34.4844 98.8308 34.4359 98.7337 34.3388C98.6367 34.2418 98.5881 34.1205 98.5881 33.9749V32.3737C98.5881 32.2281 98.6367 32.1068 98.7337 32.0097C98.8308 31.9127 98.9521 31.8642 99.0976 31.8642H99.7527C99.8497 31.8642 100.02 31.8884 100.262 31.937C100.505 31.9855 100.675 32.0097 100.772 32.0097H100.917C101.189 32.0097 101.422 31.937 101.616 31.7914C101.81 31.6458 101.941 31.476 102.009 31.2819L102.082 31.0636H101.718C100.563 31.0636 99.6508 30.7967 98.9812 30.2629C98.3116 29.7292 97.7439 28.9043 97.278 27.7883L96.0407 24.8042C95.9825 24.6586 95.9922 24.5373 96.0698 24.4403C96.1572 24.3432 96.293 24.2947 96.4774 24.2947H98.6609C99.0103 24.2947 99.2529 24.4645 99.3888 24.8042L100.626 27.7883C100.878 28.3706 101.267 28.6617 101.791 28.6617H102.955ZM118.159 25.3282C119.013 26.0075 119.44 26.9003 119.44 28.0067C119.44 29.113 119.013 30.0106 118.159 30.6996C117.305 31.379 116.058 31.7186 114.417 31.7186H112.016V33.9749C112.016 34.1205 111.967 34.2418 111.87 34.3388C111.773 34.4359 111.652 34.4844 111.506 34.4844H109.323C109.177 34.4844 109.056 34.4359 108.959 34.3388C108.862 34.2418 108.813 34.1205 108.813 33.9749V24.8042C108.813 24.6586 108.862 24.5373 108.959 24.4403C109.056 24.3432 109.177 24.2947 109.323 24.2947H114.417C116.058 24.2947 117.305 24.6392 118.159 25.3282ZM112.016 29.3895H114.417C114.951 29.3895 115.364 29.2634 115.655 29.0111C115.946 28.7587 116.092 28.4239 116.092 28.0067C116.092 27.5894 115.946 27.2546 115.655 27.0022C115.364 26.7499 114.951 26.6238 114.417 26.6238H112.016V29.3895ZM126.282 24.0036C127.893 24.0036 129.169 24.3578 130.111 25.0662C131.052 25.7746 131.523 26.585 131.523 27.4972C131.523 27.8853 131.329 28.0794 130.94 28.0794H129.121C128.772 28.0794 128.48 27.8853 128.247 27.4972C127.791 26.7693 127.136 26.4054 126.282 26.4054C125.467 26.4054 124.827 26.6626 124.361 27.1769C123.895 27.6816 123.662 28.4191 123.662 29.3895C123.662 30.36 123.895 31.1024 124.361 31.6167C124.827 32.1213 125.467 32.3737 126.282 32.3737C127.233 32.3737 127.937 31.9612 128.393 31.1363C128.607 30.7482 128.898 30.5541 129.266 30.5541H131.086C131.474 30.5541 131.668 30.7482 131.668 31.1363C131.668 32.0874 131.183 32.9317 130.213 33.6692C129.242 34.4067 127.932 34.7755 126.282 34.7755C124.38 34.7755 122.91 34.2951 121.872 33.3344C120.833 32.364 120.314 31.049 120.314 29.3895C120.314 27.7301 120.833 26.42 121.872 25.4592C122.91 24.4888 124.38 24.0036 126.282 24.0036ZM143.755 24.8042V33.9749C143.755 34.1205 143.707 34.2418 143.61 34.3388C143.513 34.4359 143.392 34.4844 143.246 34.4844H141.062C140.917 34.4844 140.796 34.4359 140.699 34.3388C140.602 34.2418 140.553 34.1205 140.553 33.9749V30.6996H136.332V33.9749C136.332 34.1205 136.283 34.2418 136.186 34.3388C136.089 34.4359 135.968 34.4844 135.822 34.4844H133.639C133.493 34.4844 133.372 34.4359 133.275 34.3388C133.178 34.2418 133.129 34.1205 133.129 33.9749V24.8042C133.129 24.6586 133.178 24.5373 133.275 24.4403C133.372 24.3432 133.493 24.2947 133.639 24.2947H135.822C135.968 24.2947 136.089 24.3432 136.186 24.4403C136.283 24.5373 136.332 24.6586 136.332 24.8042V28.225H140.553V24.8042C140.553 24.6586 140.602 24.5373 140.699 24.4403C140.796 24.3432 140.917 24.2947 141.062 24.2947H143.246C143.392 24.2947 143.513 24.3432 143.61 24.4403C143.707 24.5373 143.755 24.6586 143.755 24.8042ZM153.361 28.6617H153.216L149.576 33.9749C149.353 34.3145 149.086 34.4844 148.776 34.4844H146.301C146.156 34.4844 146.034 34.4359 145.937 34.3388C145.84 34.2418 145.792 34.1205 145.792 33.9749V24.8042C145.792 24.6586 145.84 24.5373 145.937 24.4403C146.034 24.3432 146.156 24.2947 146.301 24.2947H148.485C148.63 24.2947 148.752 24.3432 148.849 24.4403C148.946 24.5373 148.994 24.6586 148.994 24.8042V30.1174H149.14L152.779 24.8042C153.002 24.4645 153.269 24.2947 153.58 24.2947H156.054C156.2 24.2947 156.321 24.3432 156.418 24.4403C156.515 24.5373 156.564 24.6586 156.564 24.8042V33.9749C156.564 34.1205 156.515 34.2418 156.418 34.3388C156.321 34.4359 156.2 34.4844 156.054 34.4844H153.871C153.725 34.4844 153.604 34.4359 153.507 34.3388C153.41 34.2418 153.361 34.1205 153.361 33.9749V28.6617ZM166.02 29.0984V29.244C166.049 29.2537 166.088 29.2682 166.137 29.2876C166.185 29.3071 166.282 29.3653 166.428 29.4623C166.583 29.5594 166.734 29.6758 166.879 29.8117C167.034 29.9475 167.214 30.1465 167.418 30.4085C167.622 30.6608 167.811 30.952 167.985 31.2819L169.441 33.9749C169.499 34.0913 169.495 34.2078 169.427 34.3243C169.368 34.431 169.252 34.4844 169.077 34.4844H166.821C166.375 34.4844 166.059 34.3145 165.875 33.9749L164.419 31.2819C164.283 31.0393 164.123 30.8598 163.939 30.7433C163.754 30.6172 163.478 30.5541 163.109 30.5541H161.799V33.9749C161.799 34.1205 161.75 34.2418 161.653 34.3388C161.556 34.4359 161.435 34.4844 161.289 34.4844H159.106C158.96 34.4844 158.839 34.4359 158.742 34.3388C158.645 34.2418 158.596 34.1205 158.596 33.9749V24.8042C158.596 24.6586 158.645 24.5373 158.742 24.4403C158.839 24.3432 158.96 24.2947 159.106 24.2947H161.289C161.435 24.2947 161.556 24.3432 161.653 24.4403C161.75 24.5373 161.799 24.6586 161.799 24.8042V28.0794H162.891C163.259 28.0794 163.536 28.0212 163.72 27.9048C163.905 27.7786 164.065 27.5942 164.201 27.3516L165.584 24.8042C165.768 24.4645 166.083 24.2947 166.53 24.2947H168.786C168.961 24.2947 169.077 24.3529 169.135 24.4694C169.203 24.5761 169.208 24.6877 169.15 24.8042L167.767 27.3516C167.534 27.7786 167.272 28.1377 166.981 28.4288C166.69 28.7199 166.457 28.9043 166.282 28.982L166.02 29.0984ZM178.552 33.9749L178.043 32.6648H173.457L172.948 33.9749C172.812 34.3145 172.594 34.4844 172.293 34.4844H169.964C169.808 34.4844 169.692 34.4359 169.614 34.3388C169.537 34.2418 169.532 34.1205 169.6 33.9749L173.676 24.8042C173.831 24.4645 174.049 24.2947 174.331 24.2947H177.315C177.606 24.2947 177.824 24.4597 177.97 24.7896L182.046 33.9749C182.114 34.1205 182.109 34.2418 182.031 34.3388C181.953 34.4359 181.837 34.4844 181.682 34.4844H179.207C178.906 34.4844 178.688 34.3145 178.552 33.9749ZM175.714 27.3516L174.476 30.2629H177.024L175.859 27.3516H175.714Z" fill="white"/>
</svg>
