<svg width="75" height="74" viewBox="0 0 75 74" fill="none" xmlns="http://www.w3.org/2000/svg">
<path d="M74.6161 0.917969C74.6161 0.577722 74.3402 0.301897 74 0.301897C73.6598 0.301897 73.3839 0.577722 73.3839 0.917969H74H74.6161ZM4.56437 73.434C4.80496 73.6746 5.19504 73.6746 5.43563 73.434L9.35628 69.5133C9.59687 69.2727 9.59687 68.8826 9.35628 68.642C9.11569 68.4015 8.72562 68.4015 8.48503 68.642L5 72.1271L1.51497 68.642C1.27438 68.4015 0.884308 68.4015 0.643717 68.642C0.403126 68.8826 0.403126 69.2727 0.643717 69.5133L4.56437 73.434ZM74 0.917969H73.3839C73.3839 11.7315 69.1657 18.6744 62.8327 23.7675C56.4532 28.8979 47.9285 32.1545 39.2763 35.526C30.6706 38.8794 21.9439 42.3451 15.3827 47.9118C8.77957 53.5141 4.38393 61.2284 4.38393 72.9983H5H5.61607C5.61607 61.5996 9.84543 54.2256 16.1798 48.8514C22.5561 43.4415 31.0794 40.0425 39.7237 36.6741C48.3215 33.3238 57.0468 30.0017 63.6048 24.7276C70.2093 19.4163 74.6161 12.129 74.6161 0.917969H74Z" fill="white"/>
</svg>
